<svg xmlns="http://www.w3.org/2000/svg" width="1969" height="1969" fill="none"><circle cx="984.5" cy="984.5" r="984.5" fill="#16478F"/><path fill="#fff" fill-rule="evenodd" d="M835.538 371.635c-30.982-6.605-45.109.197-49.559 5.98s-7.407 21.181 6.913 49.438c13.4 26.443 38.832 56.862 73.788 83.763 24.579 18.915 49.795 32.949 72.853 41.742l16.092 6.137v130.362c23.227-1.313 47.685-1.302 73.025.488V553.659l14.69-6.652c19.29-8.741 39.62-20.87 59.49-36.166 34.96-26.9 60.39-57.32 73.79-83.763 14.32-28.257 11.37-43.655 6.92-49.438s-18.58-12.585-49.56-5.98c-29 6.181-64.92 22.973-99.87 49.874-11.57 8.904-22.16 18.243-31.64 27.746l-17.702 17.747-17.7-17.749c-9.486-9.511-20.081-18.858-31.661-27.769-34.957-26.901-70.876-43.693-99.869-49.874m70.087 220.928V694.05c-40.57 5.829-75.635 15.269-102.695 25.126-45.199-116.862-81.072-192.425-111.208-239.75-31.323-49.189-62.421-77.424-99.54-77.424-11.972 0-21.752 5.936-26.687 9.222-6.209 4.135-12.56 9.566-18.797 15.566-12.581 12.101-27.297 29.04-43.184 49.629-31.897 41.338-70.265 99.676-107.885 169.12-75.03 138.502-148.825 324.405-160.526 510.721l-.103 1.65.077 1.64c4.547 96.85 23.787 177.38 59.455 243.37 35.869 66.36 87.492 116.41 154.05 153.31 131.285 72.77 320.775 94.22 563.848 94.22 225.81 0 406.19-42.83 530.7-126.42 126.1-84.64 192.66-209.71 191.32-366.15-1.32-153.74-73.27-340.465-150.02-486.587-38.64-73.567-79.26-138.289-114.31-185.016-17.45-23.27-34.05-42.79-48.77-56.813-7.34-6.98-14.88-13.252-22.41-17.961-6.82-4.263-17.12-9.501-29.18-9.501-15.47 0-28.89 6.22-39.59 13.821-10.72 7.61-20.43 17.793-29.21 28.901-17.52 22.195-34.44 52.15-50.35 84.912-27.63 56.917-54.33 126.811-77.29 190-32.07-11.43-63.81-19.283-94.67-24.29V585.431c18.29-9.451 36.76-21.172 54.68-34.965 39.53-30.423 70.43-66.331 87.89-100.787 16.54-32.641 24.89-72.712 1.94-102.532-22.95-29.821-63.82-32.018-99.61-24.388-37.78 8.053-80.4 28.727-119.94 59.15a384 384 0 0 0-18.838 15.476 382 382 0 0 0-18.872-15.501c-39.534-30.423-82.159-51.097-119.937-59.15-35.789-7.63-76.661-5.433-99.609 24.387-22.948 29.821-14.604 69.892 1.937 102.533 17.461 34.455 48.362 70.364 87.896 100.787 22.73 17.492 46.37 31.68 69.438 42.122M295.09 1158.38c4.398 89.95 22.213 160.48 52.225 216.01 29.994 55.49 73.008 97.57 130.355 129.36 116.527 64.59 291.921 86.7 534.76 86.7 219.6 0 386.49-41.88 497.26-116.23 109.19-73.3 165.93-179.37 164.76-315.82-1.19-139.13-67.65-315.477-143.14-459.206-37.48-71.358-76.44-133.256-109.19-176.919-16.44-21.925-30.79-38.541-42.15-49.356-5.22-4.971-9.25-8.174-12.08-10.048a27.5 27.5 0 0 0-2.99 1.876c-4.41 3.131-10.09 8.605-16.85 17.163-13.53 17.138-28.23 42.551-43.46 73.931-30.34 62.49-60.05 142.734-85.25 213.049l-10.73 29.916-29.25-12.431c-163.27-69.39-323.135-28.485-380.269-.642l-29.571 14.412-11.633-30.771c-50.182-132.736-87.68-212.03-116.775-257.72-23.281-36.562-37.799-46.249-44.711-48.777-2.039 1.588-4.739 3.914-8.11 7.156-9.664 9.296-22.373 23.728-37.274 43.039-29.677 38.461-66.33 94.037-102.631 161.047C375.803 808.102 306.37 984.58 295.09 1158.38m305.045-698.031c-.005.016-.19.126-.543.283.371-.22.548-.299.543-.283m764.985.931c0-.004.07.02.21.083-.14-.048-.2-.079-.21-.083m-480.804 660.91c0 114.39-92.735 207.13-207.128 207.13-114.394 0-207.129-92.74-207.129-207.13 0-114.4 92.735-207.13 207.129-207.13s207.128 92.73 207.128 207.13m50 0c0 142.01-115.121 257.13-257.128 257.13-142.008 0-257.129-115.12-257.129-257.13 0-142.009 115.121-257.13 257.129-257.13 142.007 0 257.128 115.121 257.128 257.13m565.144 0c0 114.39-92.74 207.13-207.13 207.13-114.4 0-207.13-92.74-207.13-207.13 0-114.4 92.73-207.13 207.13-207.13 114.39 0 207.13 92.73 207.13 207.13m50 0c0 142.01-115.13 257.13-257.13 257.13-142.01 0-257.13-115.12-257.13-257.13 0-142.009 115.12-257.13 257.13-257.13 142 0 257.13 115.121 257.13 257.13m-712.508 296.49c12.358 38.47 75.74 115.21 147.19 46.14v-.24l.615.24c71.453 69.07 134.833-7.67 147.193-46.14a30.04 30.04 0 0 0 3.52-14.14c0-16.65-13.5-30.14-30.15-30.14-13.6 0-25.1 9.01-28.85 21.39-25.76 46-42.33 43.72-62.32 5.9-1.44-15.31-14.322-27.29-30.008-27.29-16.138 0-29.313 12.68-30.104 28.62-19.673 36.54-36.159 38.22-61.61-7.23-3.748-12.38-15.248-21.39-28.853-21.39-16.647 0-30.142 13.49-30.142 30.14 0 5.11 1.273 9.93 3.519 14.14m78.618-957.329c-6.893-4.595-16.206-2.733-20.801 4.16s-2.733 16.206 4.16 20.802l81.199 54.132 8.32 5.547 8.321-5.547 81.201-54.132c6.89-4.596 8.75-13.909 4.16-20.802-4.6-6.893-13.91-8.755-20.8-4.16l-72.882 48.585z" clip-rule="evenodd"/></svg>