<svg xmlns="http://www.w3.org/2000/svg" width="2000" height="2000" fill="none"><path fill="#81B5A4" d="M0 0h2000v2000H0z"/><circle cx="1000" cy="1000" r="910" fill="#1E5944"/><path fill="#000" stroke="#060606" stroke-width="60" d="M1206.05 732.763c-173.13-73.582-342.235-30.659-405.146 0C700.246 466.512 647.401 406 607.138 406S302.648 771.491 280 1132.14c17.615 375.17 261.476 462.31 747.38 462.31 445.42 0 694.54-169.43 692.03-462.31C1716.89 839.264 1442.6 406 1384.72 406s-128.34 186.376-178.67 326.763Z"/><circle cx="692.144" cy="1096.19" r="232.128" fill="#000" stroke="#fff" stroke-width="50"/><circle cx="1307.28" cy="1096.19" r="232.128" fill="#000" stroke="#fff" stroke-width="50"/><path fill="#fff" d="M908.673 1378.54c0 16.64-13.495 30.14-30.142 30.14s-30.142-13.5-30.142-30.14c0-16.65 13.495-30.15 30.142-30.15s30.142 13.5 30.142 30.15M1029.24 1378.54c0 16.64-13.49 30.14-30.142 30.14-16.647 0-30.142-13.5-30.142-30.14 0-16.65 13.495-30.15 30.142-30.15 16.652 0 30.142 13.5 30.142 30.15"/><path fill="#fff" d="M999.098 1438.82c-73.816 71.36-139.021-12.92-148.248-49.83 18.393-7.17 54.602-22.63 52.287-27.06 29.259 55.97 46.75 53.51 68.895 9.22l27.066 17.84zM1090.14 1378.54c0 16.64 13.49 30.14 30.14 30.14s30.14-13.5 30.14-30.14c0-16.65-13.49-30.15-30.14-30.15s-30.14 13.5-30.14 30.15"/><path fill="#fff" d="M999.713 1438.82c73.817 71.36 139.017-12.92 148.247-49.83-18.39-7.17-54.6-22.63-52.28-27.06-29.26 55.97-46.76 53.51-68.9 9.22l-27.067 17.84-27.681 38.76z"/></svg>